# File created by Blade
# Date/Time:  Tue Jan 27 17:27:32 2015
# Frame Rate: 120.000 fps
#------------------------------------------------------
:FULLY-SPECIFIED
:DEGREES
1429
root 2.473574 36.650086 0.583726 4.983280 14.211707 4.243954
Spine 0.397288 10.488920 -5.451856
Head 5.330459 -10.107850 3.245534
LeftShoulder -4.242864 -7.248479 8.590434
LeftArm -9.855324 -27.408818 -48.379871
LeftForeArm 4.361580 -0.000000 102.566231
LeftHand -11.976465 0.000000 29.160557
LeftHandThumb1 -26.253704 0.000000 33.147579
RightShoulder -4.598990 -20.577032 3.367742
RightArm 26.126853 -32.648604 53.329432
RightForeArm 183.477344 -0.000000 29.070501
RightHand 1.050841 0.000000 -0.033157
RightHandThumb1 -24.326973 -0.000000 -32.862282
LeftUpLeg -4.023004 5.760094 -5.932839
LeftLeg 8.564729 -0.000000 -0.000000
LeftFoot -17.320568 0.146419 -14.703160
LeftToeBase 16.221982 -0.000000 -0.000000
RightUpLeg -6.480871 -12.290222 -8.315750
RightLeg 24.238752 -0.000000 -0.000000
RightFoot -21.790630 -3.123432 9.804918
RightToeBase 2.687731 -0.000000 -0.000000
1430
root 2.512741 36.647179 0.583863 5.082216 14.117271 4.261576
Spine 0.193260 10.520777 -5.468207
Head 5.396322 -10.138415 3.292332
LeftShoulder -4.246576 -7.225217 8.610987
LeftArm -9.953901 -27.448564 -48.376244
LeftForeArm 4.234157 -0.000000 102.511270
LeftHand -12.088807 -0.000000 29.139212
LeftHandThumb1 -26.253704 0.000000 33.147579
RightShoulder -4.577603 -20.552184 3.350930
RightArm 26.193362 -32.793681 53.370466
RightForeArm 183.364358 -0.000000 29.097616
RightHand 1.047346 -0.000000 -0.141747
RightHandThumb1 -24.326973 -0.000000 -32.862282
LeftUpLeg -4.109367 5.821761 -6.023838
LeftLeg 8.582581 -0.000000 -0.000000
LeftFoot -17.356548 0.168830 -14.669257
LeftToeBase 16.206742 -0.000000 -0.000000
RightUpLeg -6.646628 -12.269292 -8.382787
RightLeg 24.372599 -0.000000 -0.000000
RightFoot -21.782476 -3.049743 9.829316
RightToeBase 2.660304 -0.000000 -0.000000
1431
root 2.551056 36.644694 0.585819 5.139890 13.986109 4.265106
Spine 0.053067 10.551013 -5.470040
Head 5.396489 -10.148834 3.370466
LeftShoulder -4.312056 -7.221425 8.657793
LeftArm -10.045121 -27.490808 -48.424541
LeftForeArm 4.192549 -0.000000 102.428284
LeftHand -12.003138 -0.000000 29.193126
LeftHandThumb1 -26.253704 0.000000 33.147579
RightShoulder -4.520773 -20.518534 3.331255
RightArm 26.272410 -32.904971 53.402223
RightForeArm 183.309909 -0.000000 29.090241
RightHand 0.986374 -0.000000 -0.104277
RightHandThumb1 -24.326973 -0.000000 -32.862282
LeftUpLeg -4.170577 5.982449 -6.098081
LeftLeg 8.629303 -0.000000 -0.000000
LeftFoot -17.385153 0.124985 -14.614273
LeftToeBase 16.168164 -0.000000 -0.000000
RightUpLeg -6.759761 -12.224792 -8.445065
RightLeg 24.457991 -0.000000 -0.000000
RightFoot -21.765717 -2.969312 9.850982
RightToeBase 2.605008 -0.000000 -0.000000
1432
root 2.585971 36.642696 0.585743 5.213660 13.863957 4.256933
Spine -0.098793 10.592319 -5.456444
Head 5.394335 -10.195179 3.413615
LeftShoulder -4.357368 -7.208418 8.688780
LeftArm -10.127532 -27.508555 -48.456113
LeftForeArm 4.235297 0.000000 102.323148
LeftHand -11.894834 -0.000000 29.200380
LeftHandThumb1 -26.253704 0.000000 33.147579
RightShoulder -4.506639 -20.499361 3.327986
RightArm 26.372249 -32.989934 53.415351
RightForeArm 183.307475 0.000000 29.097624
RightHand 1.013713 -0.000000 -0.226223
RightHandThumb1 -24.326973 -0.000000 -32.862282
LeftUpLeg -4.268267 6.118208 -6.158015
LeftLeg 8.705217 -0.000000 -0.000000
LeftFoot -17.432983 0.088916 -14.568261
LeftToeBase 16.210970 -0.000000 -0.000000
RightUpLeg -6.889011 -12.200540 -8.484806
RightLeg 24.529739 -0.000000 -0.000000
RightFoot -21.748468 -2.882204 9.856704
RightToeBase 2.613609 -0.000000 -0.000000
1433
root 2.618013 36.640692 0.586109 5.262172 13.768450 4.234608
Spine -0.237579 10.638572 -5.419312
Head 5.449064 -10.264470 3.423168
LeftShoulder -4.322647 -7.175327 8.687165
LeftArm -10.239106 -27.553114 -48.416699
LeftForeArm 4.154128 0.000000 102.240750
LeftHand -11.782406 -0.000000 29.177154
LeftHandThumb1 -26.253704 0.000000 33.147579
RightShoulder -4.469903 -20.492287 3.288483
RightArm 26.426639 -33.083220 53.478800
RightForeArm 183.298957 -0.000000 29.126346
RightHand 1.036445 0.000000 -0.153848
RightHandThumb1 -24.326973 -0.000000 -32.862282
LeftUpLeg -4.339144 6.221155 -6.197981
LeftLeg 8.770197 -0.000000 -0.000000
LeftFoot -17.481238 0.057037 -14.543806
LeftToeBase 16.179822 -0.000000 -0.000000
RightUpLeg -6.976285 -12.273771 -8.513734
RightLeg 24.569477 -0.000000 -0.000000
RightFoot -21.715273 -2.765938 9.767867
RightToeBase 2.608640 -0.000000 -0.000000
